/////////////////////////////////////////////////////////////////////////////
// sfz definition file
// copyright Chicken Systems, Inc.
// -------------------------------------------------------------------------
// Application: Translator 6 6.0, Build 34
// Vendor: 


<region> sample=..\..\processed drums\example patches\wams20_example_basic-kick_p.wav lokey=36 hikey=36 end=17312 pitch_keycenter=36 bend_up=700 bend_down=-700 amp_veltrack=59.842518 ampeg_decay=200.199997 ampeg_release=200.199997 pitchlfo_freq=5.998879 

<region> sample=..\..\processed drums\example patches\wams20_example_feedback-kick_p.wav lokey=37 hikey=37 end=19264 pitch_keycenter=37 bend_up=700 bend_down=-700 amp_veltrack=59.842518 ampeg_decay=200.199997 ampeg_release=200.199997 pitchlfo_freq=5.998879 

<region> sample=..\..\processed drums\example patches\wams20_example_noise-kick_p.wav lokey=38 hikey=38 end=15856 pitch_keycenter=38 bend_up=700 bend_down=-700 amp_veltrack=59.842518 ampeg_decay=200.199997 ampeg_release=200.199997 pitchlfo_freq=5.998879 

<region> sample=..\..\processed drums\example patches\wams20_example_vca-kick_p.wav lokey=39 hikey=39 end=26272 pitch_keycenter=39 bend_up=700 bend_down=-700 amp_veltrack=59.842518 ampeg_decay=200.199997 ampeg_release=200.199997 pitchlfo_freq=5.998879 

<region> sample=..\..\processed drums\example patches\wams20_example_snare-a_p.wav lokey=40 hikey=40 end=14544 pitch_keycenter=40 bend_up=700 bend_down=-700 amp_veltrack=59.842518 ampeg_decay=200.199997 ampeg_release=200.199997 pitchlfo_freq=5.998879 

<region> sample=..\..\processed drums\example patches\wams20_example_snare-b_p.wav lokey=41 hikey=41 end=13472 pitch_keycenter=41 bend_up=700 bend_down=-700 amp_veltrack=59.842518 ampeg_decay=200.199997 ampeg_release=200.199997 pitchlfo_freq=5.998879 

<region> sample=..\..\processed drums\example patches\wams20_example_cymbal_p.wav lokey=42 hikey=42 end=90624 pitch_keycenter=42 bend_up=700 bend_down=-700 amp_veltrack=59.842518 ampeg_decay=200.199997 ampeg_release=200.199997 pitchlfo_freq=5.998879 

<region> sample=..\..\processed drums\example patches\wams20_example_cowbell-a_p.wav lokey=43 hikey=43 end=20384 pitch_keycenter=43 bend_up=700 bend_down=-700 amp_veltrack=59.842518 ampeg_decay=200.199997 ampeg_release=200.199997 pitchlfo_freq=5.998879 

<region> sample=..\..\processed drums\example patches\wams20_example_cowbell-b_p.wav lokey=44 hikey=44 end=34176 pitch_keycenter=44 bend_up=700 bend_down=-700 amp_veltrack=59.842518 ampeg_decay=200.199997 ampeg_release=200.199997 pitchlfo_freq=5.998879 

<region> sample=..\..\processed drums\example patches\wams20_example_basic-block-a_p.wav lokey=45 hikey=45 end=8768 pitch_keycenter=45 bend_up=700 bend_down=-700 amp_veltrack=59.842518 ampeg_decay=200.199997 ampeg_release=200.199997 pitchlfo_freq=5.998879 

<region> sample=..\..\processed drums\example patches\wams20_example_basic-block-b_p.wav lokey=46 hikey=46 end=10017 pitch_keycenter=46 bend_up=700 bend_down=-700 amp_veltrack=59.842518 ampeg_decay=200.199997 ampeg_release=200.199997 pitchlfo_freq=5.998879 

<region> sample=..\..\processed drums\example patches\wams20_example_complex-block-a_p.wav lokey=47 hikey=47 end=7424 pitch_keycenter=47 bend_up=700 bend_down=-700 amp_veltrack=59.842518 ampeg_decay=200.199997 ampeg_release=200.199997 pitchlfo_freq=5.998879 

<region> sample=..\..\processed drums\example patches\wams20_example_complex-block-b_p.wav lokey=48 hikey=48 end=8752 pitch_keycenter=48 bend_up=700 bend_down=-700 amp_veltrack=59.842518 ampeg_decay=200.199997 ampeg_release=200.199997 pitchlfo_freq=5.998879 

<region> sample=..\..\processed drums\example patches\wams20_example_clave-a_p.wav lokey=49 hikey=49 end=13024 pitch_keycenter=49 bend_up=700 bend_down=-700 amp_veltrack=59.842518 ampeg_decay=200.199997 ampeg_release=200.199997 pitchlfo_freq=5.998879 

<region> sample=..\..\processed drums\example patches\wams20_example_clave-b_p.wav lokey=50 hikey=50 end=12928 pitch_keycenter=50 bend_up=700 bend_down=-700 amp_veltrack=59.842518 ampeg_decay=200.199997 ampeg_release=200.199997 pitchlfo_freq=5.998879 

<region> sample=..\..\processed drums\example patches\wams20_example_basic-tom_p.wav lokey=51 hikey=51 end=40256 pitch_keycenter=51 bend_up=700 bend_down=-700 amp_veltrack=59.842518 ampeg_decay=200.199997 ampeg_release=200.199997 pitchlfo_freq=5.998879 

<region> sample=..\..\processed drums\example patches\wams20_example_vca-tom-a_p.wav lokey=52 hikey=52 end=22768 pitch_keycenter=52 bend_up=700 bend_down=-700 amp_veltrack=59.842518 ampeg_decay=200.199997 ampeg_release=200.199997 pitchlfo_freq=5.998879 

<region> sample=..\..\processed drums\example patches\wams20_example_conga-a_p.wav lokey=53 hikey=53 end=12000 pitch_keycenter=53 bend_up=700 bend_down=-700 amp_veltrack=59.842518 ampeg_decay=200.199997 ampeg_release=200.199997 pitchlfo_freq=5.998879 

<region> sample=..\..\processed drums\example patches\wams20_example_conga-b_p.wav lokey=54 hikey=54 end=10672 pitch_keycenter=54 bend_up=700 bend_down=-700 amp_veltrack=59.842518 ampeg_decay=200.199997 ampeg_release=200.199997 pitchlfo_freq=5.998879 

